<svg xmlns:xlink="http://www.w3.org/1999/xlink" width="25.875ex" height="7.176ex" style="vertical-align: -3.171ex;"
     viewBox="0 -1724.2 11140.7 3089.6" role="img" focusable="false" xmlns="http://www.w3.org/2000/svg">
    <style>
        svg { color: #111; }
        @media (prefers-color-scheme: dark) {
        svg { color: #f5f5f5; }
        }
    </style>
    <defs>
        <path stroke-width="1" id="E1-STIXWEBMAIN-28"
              d="M304 -161l-12 -16c-158 90 -244 259 -244 429c0 185 87 329 247 424l9 -16c-139 -119 -170 -212 -170 -405c0 -186 30 -299 170 -416Z"></path>
        <path stroke-width="1" id="E1-STIXWEBNORMALI-1D465"
              d="M305 288l45 69c26 40 61 84 111 84c32 0 49 -12 49 -33c0 -19 -13 -42 -39 -42c-22 0 -27 9 -44 9c-30 0 -41 -16 -55 -38l-55 -85c30 -62 53 -197 98 -197c16 0 40 14 61 57l14 -10c-12 -15 -57 -111 -115 -111c-41 0 -60 41 -73 77l-40 113l-63 -98 c-32 -49 -61 -92 -117 -92c-36 0 -52 25 -52 47c0 16 13 37 38 37c26 0 22 -20 47 -20c12 0 38 10 70 59l65 101l-33 92c-17 48 -43 89 -98 89c-13 0 -28 -2 -38 -6l-3 18l132 33c44 -24 63 -65 75 -98Z"></path>
        <path stroke-width="1" id="E1-STIXWEBMAIN-2B"
              d="M636 220h-261v-261h-66v261h-261v66h261v261h66v-261h261v-66Z"></path>
        <path stroke-width="1" id="E1-STIXWEBNORMALI-1D466"
              d="M270 307l28 -235c61 83 96 143 118 184c20 37 28 57 28 75c0 21 -52 31 -52 69c0 22 18 40 47 40c32 0 57 -23 57 -62c0 -78 -162 -318 -204 -371c-73 -92 -138 -190 -206 -190c-37 0 -56 31 -56 55c0 30 27 41 40 41c43 0 41 -31 57 -31c17 0 74 62 100 102l-38 314 c-5 45 -14 105 -70 105c-11 0 -27 -3 -36 -4l-2 16l150 25c23 -33 30 -59 39 -133Z"></path>
        <path stroke-width="1" id="E1-STIXWEBMAIN-29"
              d="M29 660l12 16c153 -92 244 -259 244 -429c0 -185 -88 -327 -247 -424l-9 16c142 117 170 211 170 405c0 187 -25 302 -170 416Z"></path>
        <path stroke-width="1" id="E1-STIXWEBNORMALI-1D45B"
              d="M467 96l-5 -6c-28 -34 -76 -98 -128 -98c-32 0 -41 23 -41 46c0 13 4 29 7 40l57 221c2 8 7 28 7 42c0 19 -6 38 -24 38c-38 0 -101 -86 -132 -133c-36 -54 -62 -101 -68 -122l-33 -124h-77l95 374c0 18 -3 32 -30 32c-10 0 -21 -2 -28 -3l-2 15l159 23l-51 -189h3 c5 0 54 70 56 73c40 50 100 116 160 116c44 0 56 -29 56 -62c0 -25 -6 -50 -11 -70l-59 -231c-1 -2 -1 -5 -1 -10c1 -6 4 -14 15 -14c24 0 48 36 62 53Z"></path>
        <path stroke-width="1" id="E1-STIXWEBMAIN-3D" d="M637 320h-589v66h589v-66zM637 120h-589v66h589v-66Z"></path>
        <path stroke-width="1" id="E1-STIXWEBSIZE1-2211"
              d="M1202 465l-74 -416h-1038l557 735l-521 715h976v-351h-36c0 19 -7 45 -11 65c-28 131 -95 183 -162 191c-28 4 -71 5 -106 5h-377l411 -564l-470 -613h568c139 0 208 69 244 233h39Z"></path>
        <path stroke-width="1" id="E1-STIXWEBNORMALI-1D458"
              d="M527 428l-4 -12c-67 -7 -95 -25 -133 -58l-106 -92l64 -152c15 -35 27 -59 53 -59c30 0 52 43 74 73l15 -11c-12 -21 -59 -128 -127 -128c-46 0 -67 53 -78 79l-63 147l-56 -49l-45 -166h-76l148 589c2 6 3 13 3 20c0 11 -10 22 -32 22c-9 0 -19 0 -27 -2l-3 14l158 25 l-113 -456l167 149c11 10 21 23 21 36c0 12 -16 19 -26 19h-12l4 12h194Z"></path>
        <path stroke-width="1" id="E1-STIXWEBMAIN-30"
              d="M476 330c0 -172 -63 -344 -226 -344c-171 0 -226 186 -226 350c0 177 69 340 230 340c131 0 222 -141 222 -346zM380 325c0 208 -44 325 -132 325c-83 0 -128 -118 -128 -321s44 -317 130 -317c85 0 130 115 130 313Z"></path>
        <path stroke-width="1" id="E1-STIXWEBSIZE3-28"
              d="M667 -346v-48c-284 267 -485 689 -485 1230c0 538 201 1002 485 1230v-44c-178 -184 -375 -580 -375 -1186c0 -613 197 -962 375 -1182Z"></path>
        <path stroke-width="1" id="E1-STIXWEBSIZE3-29"
              d="M83 2018v48c284 -267 485 -685 485 -1230c0 -534 -201 -1002 -485 -1230v44c178 184 375 580 375 1186c0 614 -197 965 -375 1182Z"></path>
        <path stroke-width="1" id="E1-STIXWEBMAIN-2212" d="M621 220h-557v66h557v-66Z"></path>
        <path stroke-width="1" id="E1-STIXWEBMAIN-2E"
              d="M181 43c0 -29 -26 -54 -56 -54c-31 0 -55 24 -55 55s25 56 56 56c29 0 55 -27 55 -57Z"></path>
    </defs>
    <g stroke="currentColor" fill="currentColor" stroke-width="0" transform="matrix(1 0 0 -1 0 0)">
        <use xlink:href="#E1-STIXWEBMAIN-28" x="0" y="0"></use>
        <use xlink:href="#E1-STIXWEBNORMALI-1D465" x="333" y="0"></use>
        <use xlink:href="#E1-STIXWEBMAIN-2B" x="1106" y="0"></use>
        <use xlink:href="#E1-STIXWEBNORMALI-1D466" x="2013" y="0"></use>
        <g transform="translate(2510,0)">
            <use xlink:href="#E1-STIXWEBMAIN-29" x="0" y="0"></use>
            <use transform="scale(0.707)" xlink:href="#E1-STIXWEBNORMALI-1D45B" x="471" y="583"></use>
        </g>
        <use xlink:href="#E1-STIXWEBMAIN-3D" x="3573" y="0"></use>
        <g transform="translate(4536,0)">
            <use xlink:href="#E1-STIXWEBSIZE1-2211" x="0" y="-524"></use>
            <g transform="translate(35,-1122)">
                <use transform="scale(0.707)" xlink:href="#E1-STIXWEBNORMALI-1D458" x="0" y="0"></use>
                <use transform="scale(0.707)" xlink:href="#E1-STIXWEBMAIN-3D" x="542" y="0"></use>
                <use transform="scale(0.707)" xlink:href="#E1-STIXWEBMAIN-30" x="1228" y="0"></use>
            </g>
            <use transform="scale(0.707)" xlink:href="#E1-STIXWEBNORMALI-1D45B" x="665" y="1663"></use>
        </g>
        <g transform="translate(5995,0)">
            <use xlink:href="#E1-STIXWEBSIZE3-28" x="0" y="-586"></use>
            <g transform="translate(750,0)">
                <use xlink:href="#E1-STIXWEBNORMALI-1D45B" x="22" y="676"></use>
                <use xlink:href="#E1-STIXWEBNORMALI-1D458" x="0" y="-686"></use>
            </g>
            <use xlink:href="#E1-STIXWEBSIZE3-29" x="1293" y="-586"></use>
        </g>
        <g transform="translate(8039,0)">
            <use xlink:href="#E1-STIXWEBNORMALI-1D465" x="0" y="0"></use>
            <use transform="scale(0.707)" xlink:href="#E1-STIXWEBNORMALI-1D458" x="778" y="583"></use>
        </g>
        <g transform="translate(9073,0)">
            <use xlink:href="#E1-STIXWEBNORMALI-1D466" x="0" y="0"></use>
            <g transform="translate(496,412)">
                <use transform="scale(0.707)" xlink:href="#E1-STIXWEBNORMALI-1D45B" x="0" y="0"></use>
                <use transform="scale(0.707)" xlink:href="#E1-STIXWEBMAIN-2212" x="497" y="0"></use>
                <use transform="scale(0.707)" xlink:href="#E1-STIXWEBNORMALI-1D458" x="1183" y="0"></use>
            </g>
        </g>
        <use xlink:href="#E1-STIXWEBMAIN-2E" x="10890" y="0"></use>
    </g>
</svg>
